<svg xmlns="http://www.w3.org/2000/svg" width="272" height="190" viewBox="0 0 272 190">
  <path id="Subtraction_2" data-name="Subtraction 2" d="M401.884,426.824H371.958L471.325,308.9v35.516l-69.44,82.411Zm-59.852,0H312.107L471.325,237.865V273.38L342.032,426.823Zm-59.851,0H252.255l160.1-190h29.926l-160.1,190Zm-59.852,0h-22v-9.4L352.5,236.823h29.925l-160.1,190Zm239.406,0H431.81l39.515-46.9v35.515l-9.589,11.381ZM200.323,381.91l0,0h0l0,0V346.392l92.324-109.569h29.926L200.325,381.907Zm0-71.034h0l0,0V275.361L232.8,236.823h29.925Zm0-71.031v-3.022h2.546l-2.544,3.02Z" transform="translate(-199.325 -236.823)" fill="#1f1f1f"/>
  <text id="f34th3r.io" transform="translate(124 141)" fill="#f1f1f1" font-size="28" font-family="Lovelo-Black, Lovelo" font-weight="800"><tspan x="0" y="0">F34TH3R.IO</tspan></text>
  <path id="Path_50" data-name="Path 50" d="M0,0H104.5" transform="translate(1 131.5)" fill="none" stroke="#f1f1f1" stroke-linecap="round" stroke-width="2"/>
</svg>
