<svg xmlns="http://www.w3.org/2000/svg" width="1320.5" height="190" viewBox="0 0 1320.5 190">
  <path id="Subtraction_2" data-name="Subtraction 2" d="M401.884,426.824H371.958L471.325,308.9v35.516l-69.44,82.411Zm-59.852,0H312.107L471.325,237.865V273.38L342.032,426.823Zm-59.851,0H252.255l160.1-190h29.926l-160.1,190Zm-59.852,0h-22v-9.4L352.5,236.823h29.925l-160.1,190Zm239.406,0H431.81l39.515-46.9v35.515l-9.589,11.381ZM200.323,381.91l0,0h0l0,0V346.392l92.324-109.569h29.926L200.325,381.907Zm0-71.034h0l0,0V275.361L232.8,236.823h29.925Zm0-71.031v-3.022h2.546l-2.544,3.02Z" transform="translate(849.175 -236.823)" fill="#1f1f1f"/>
  <g id="Group_9" data-name="Group 9" transform="translate(-299.5 -798)">
    <text id="f34th3r.io" transform="translate(1472 939)" fill="#f1f1f1" font-size="28" font-family="Lovelo-Black, Lovelo" font-weight="800"><tspan x="0" y="0">F34TH3R.IO</tspan></text>
    <line id="Line_1" data-name="Line 1" x2="1153" transform="translate(300.5 929.5)" fill="none" stroke="#f1f1f1" stroke-linecap="round" stroke-width="2"/>
    <g id="Component_1_1" data-name="Component 1 – 1" transform="translate(300.002 798)">
      <path id="Subtraction_3" data-name="Subtraction 3" d="M418.3,314.824H384.369l86.954-103.275v40.3L418.3,314.824Zm-67.866,0H316.5l110.3-131h33.932l-110.3,131Zm-67.865,0H248.639l110.3-131h33.932l-110.3,131Zm-67.865,0H200.325V291.6l90.748-107.78H325l-110.3,131Zm256.617,0h-19.09l19.09-22.673v22.672Zm-271-63.521V211l22.882-27.177H257.14L200.326,251.3Z" transform="translate(-200.325 -183.824)" fill="#f1f1f1"/>
    </g>
  </g>
</svg>
