<svg xmlns="http://www.w3.org/2000/svg" width="351.999" height="105.001" viewBox="0 0 351.999 105.001">
  <path id="Subtraction_5" data-name="Subtraction 5" d="M335.615,251.824H301.683l88.407-105h33.933l-88.408,105Zm-67.865,0H233.819l88.407-105h33.932l-88.407,105Zm-67.865,0H165.953l88.407-105h33.933l-88.407,105Zm-67.865,0h-8.7V221.851L186.5,146.823h33.933l-88.407,105Zm339.325,0H437.414l37.91-45.025v40.3l-3.977,4.723Zm-67.865,0H369.548l88.407-105h17.368V166.5L403.48,251.824ZM123.324,181.549V146.823h29.238l-29.236,34.724Z" transform="translate(-123.324 -146.823)" fill="#f1f1f1" opacity="0.39"/>
</svg>
