<?xml version="1.0" encoding="utf-8"?>
<!-- Generator: Adobe Illustrator 23.0.0, SVG Export Plug-In . SVG Version: 6.00 Build 0)  -->
<svg version="1.1" id="Layer_1" xmlns="http://www.w3.org/2000/svg" xmlns:xlink="http://www.w3.org/1999/xlink" x="0px" y="0px"
	 viewBox="0 0 530 250" style="enable-background:new 0 0 530 250;" xml:space="preserve">
<style type="text/css">
	.st0{fill:#FFFFFF;}
</style>
<g>
	<g>
		<polygon class="st0" points="153.6,0 125.3,0 0,125.3 0,153.6 		"/>
	</g>
	<g>
		<polygon class="st0" points="323.3,0 295,0 45,250 73.3,250 		"/>
	</g>
	<g>
		<polygon class="st0" points="40.4,0 12.2,0 0,12.2 0,40.4 		"/>
	</g>
	<g>
		<polygon class="st0" points="238.4,0 0,238.4 0,250 16.7,250 266.7,0 		"/>
	</g>
	<g>
		<polygon class="st0" points="97,0 68.7,0 0,68.7 0,97 		"/>
	</g>
	<g>
		<polygon class="st0" points="379.9,0 351.6,0 101.6,250 129.9,250 		"/>
	</g>
	<g>
		<polygon class="st0" points="210.2,0 181.9,0 0,181.9 0,210.2 		"/>
	</g>
	<g>
		<polygon class="st0" points="530,189.3 530,161 441,250 469.3,250 		"/>
	</g>
	<g>
		<polygon class="st0" points="530,132.7 530,104.4 384.4,250 412.7,250 		"/>
	</g>
	<g>
		<polygon class="st0" points="436.4,0 408.1,0 158.1,250 186.4,250 		"/>
	</g>
	<g>
		<polygon class="st0" points="530,245.8 530,217.6 497.6,250 525.8,250 		"/>
	</g>
	<g>
		<polygon class="st0" points="530,76.1 530,47.8 327.8,250 356.1,250 		"/>
	</g>
	<g>
		<polygon class="st0" points="493,0 464.7,0 214.7,250 243,250 		"/>
	</g>
	<g>
		<polygon class="st0" points="530,19.6 530,0 521.3,0 271.3,250 299.6,250 		"/>
	</g>
</g>
</svg>
