<svg xmlns="http://www.w3.org/2000/svg" width="352.999" height="105.001" viewBox="0 0 352.999 105.001">
  <g id="Group_10" data-name="Group 10" transform="translate(-995.501 -151)">
    <path id="Subtraction_5" data-name="Subtraction 5" d="M335.615,251.824H301.683l88.407-105h33.933l-88.408,105Zm-67.865,0H233.819l88.407-105h33.932l-88.407,105Zm-67.865,0H165.953l88.407-105h33.933l-88.407,105Zm-67.865,0h-8.7V221.851L186.5,146.823h33.933l-88.407,105Zm339.325,0H437.414l37.91-45.025v40.3l-3.977,4.723Zm-67.865,0H369.548l88.407-105h17.368V166.5L403.48,251.824ZM123.324,181.549V146.823h29.238l-29.236,34.724Z" transform="translate(872.177 4.176)" fill="#f1f1f1" opacity="0.39"/>
    <text id="latest_posts" data-name="latest posts" transform="translate(1151.5 247)" fill="#f1f1f1" font-size="30" font-family="Lovelo-Black, Lovelo" font-weight="800"><tspan x="0" y="0">latest posts</tspan></text>
  </g>
</svg>
