<svg id="Layer_1" data-name="Layer 1" xmlns="http://www.w3.org/2000/svg" viewBox="0 0 530 250"><title>lines-black</title><polygon points="153.6 0 125.3 0 0 125.3 0 153.6 153.6 0"/><polygon points="323.3 0 295 0 45 250 73.3 250 323.3 0"/><polygon points="40.4 0 12.2 0 0 12.2 0 40.4 40.4 0"/><polygon points="238.4 0 0 238.4 0 250 16.7 250 266.7 0 238.4 0"/><polygon points="97 0 68.7 0 0 68.7 0 97 97 0"/><polygon points="379.9 0 351.6 0 101.6 250 129.9 250 379.9 0"/><polygon points="210.2 0 181.9 0 0 181.9 0 210.2 210.2 0"/><polygon points="530 189.3 530 161 441 250 469.3 250 530 189.3"/><polygon points="530 132.7 530 104.4 384.4 250 412.7 250 530 132.7"/><polygon points="436.4 0 408.1 0 158.1 250 186.4 250 436.4 0"/><polygon points="530 245.8 530 217.6 497.6 250 525.8 250 530 245.8"/><polygon points="530 76.1 530 47.8 327.8 250 356.1 250 530 76.1"/><polygon points="493 0 464.7 0 214.7 250 243 250 493 0"/><polygon points="530 19.6 530 0 521.3 0 271.3 250 299.6 250 530 19.6"/></svg>