<svg xmlns="http://www.w3.org/2000/svg" width="271.002" height="271" viewBox="0 0 271.002 271">
  <g id="Group_6" data-name="Group 6" transform="translate(-749 -399)">
    <path id="Subtraction_4" data-name="Subtraction 4" d="M435.613,457.824H405.688l50.636-60.094v35.515l-20.711,24.579Zm-59.851,0H345.837L456.324,326.7v35.516l-80.562,95.609Zm-59.852,0H285.985L456.324,255.667v35.515L315.911,457.824Zm-59.851,0H226.133l228.347-271h1.844v33.328L256.059,457.824Zm-59.851,0h0l-10.882,0v-22.6l209.305-248.4h29.926ZM185.324,399.71h0l0,0V364.194l149.454-177.37H364.7Zm0-71.032h0l0,0V293.163l89.6-106.339h29.925Zm0-71.029,0,0h0l0,0V222.131l29.75-35.307H245l-59.677,70.823Z" transform="translate(563.677 212.176)"/>
    <text id="feather-" transform="translate(749 590)" fill="#f1f1f1" font-size="46" font-family="Lovelo-Black, Lovelo" font-weight="800"><tspan x="0" y="0">fEATHER-</tspan></text>
    <text id="BLOG" transform="translate(749 630)" fill="#f1f1f1" font-size="40" font-family="Lovelo-Black, Lovelo" font-weight="800"><tspan x="0" y="0">BLOG</tspan></text>
  </g>
</svg>
