<svg xmlns="http://www.w3.org/2000/svg" width="213" height="59" viewBox="0 0 213 59">
  <path id="Intersection_1" data-name="Intersection 1" d="M-3579.018-1611.5l7.9-12.187v12.014l-.112.173Zm-15.582,0,23.486-36.214v12.014l-15.695,24.2Zm-15.582,0,38.263-59h.8v10.773l-31.276,48.227Zm-15.581,0,38.263-59h7.79l-38.263,59Zm-11.8-5.834,34.479-53.166h7.791l-37.647,58.051A9.536,9.536,0,0,1-3637.562-1617.334Zm-.733-22.9,19.631-30.27h7.791l-27.421,42.283Zm0-20.77a9.5,9.5,0,0,1,9.5-9.5h2.34l-11.839,18.256Z" transform="translate(3638.296 1670.5)" fill="#f1f1f1"/>
  <text id="Featherblog" transform="translate(79 39.5)" fill="#f1f1f1" font-size="25" font-family="Roboto-Bold, Roboto" font-weight="700"><tspan x="0" y="0">Feather</tspan><tspan y="0" font-family="Roboto-Light, Roboto" font-weight="300">blog</tspan></text>
</svg>
